# Blender v2.80 (sub 75) OBJ File: 'powerbox.blend'
# www.blender.org
mtllib powerbox.mtl
o Cube_Cube.001
v -0.367204 -0.500000 0.193839
v -0.367204 0.500000 0.193839
v -0.367204 -0.500000 -0.193839
v -0.367204 0.500000 -0.193839
v 0.367204 -0.500000 0.193839
v 0.367204 0.500000 0.193839
v 0.367204 -0.500000 -0.193839
v 0.367204 0.500000 -0.193839
v 0.305313 -0.438109 0.193839
v 0.305313 0.438109 0.193839
v -0.305313 0.438109 0.193839
v -0.305313 -0.438109 0.193839
v 0.305313 0.438109 -0.112970
v 0.305313 -0.438109 -0.112970
v -0.305313 -0.438109 -0.112970
v -0.305313 0.438109 -0.112970
v 0.250310 -0.500000 -0.193839
v 0.127909 -0.500000 -0.193839
v 0.005507 -0.500000 -0.193839
v -0.116894 -0.500000 -0.193839
v -0.265537 -0.500000 -0.193839
v -0.265537 0.500000 -0.193839
v -0.116894 0.500000 -0.193839
v 0.005507 0.500000 -0.193839
v 0.127909 0.500000 -0.193839
v 0.250310 0.500000 -0.193839
v -0.265537 -0.500000 0.193839
v -0.116894 -0.500000 0.193839
v 0.005507 -0.500000 0.193839
v 0.127909 -0.500000 0.193839
v 0.250310 -0.500000 0.193839
v 0.250310 0.500000 0.193839
v 0.127909 0.500000 0.193839
v 0.005507 0.500000 0.193839
v -0.116894 0.500000 0.193839
v -0.265537 0.500000 0.193839
v -0.225205 -0.438109 0.193839
v -0.097192 -0.438109 0.193839
v 0.004579 -0.438109 0.193839
v 0.106350 -0.438109 0.193839
v 0.208121 -0.438109 0.193839
v 0.208121 0.438109 0.193839
v 0.106350 0.438109 0.193839
v 0.004579 0.438109 0.193839
v -0.097192 0.438109 0.193839
v -0.225205 0.438109 0.193839
v -0.225205 -0.438109 -0.112970
v -0.097192 -0.438109 -0.112970
v 0.004579 -0.438109 -0.112970
v 0.106350 -0.438109 -0.112970
v 0.230435 -0.438109 -0.112970
v 0.230435 0.438109 -0.112970
v 0.106350 0.438109 -0.112970
v 0.004579 0.438109 -0.112970
v -0.097192 0.438109 -0.112970
v -0.225205 0.438109 -0.112970
v -0.114818 -0.420483 -0.112970
v -0.114818 0.420483 -0.112970
v -0.207579 0.420483 -0.112970
v -0.207579 -0.420483 -0.112970
v 0.221040 -0.428714 -0.112970
v 0.221040 0.428714 -0.112970
v 0.115745 0.428714 -0.112970
v 0.115745 -0.428714 -0.112970
v -0.600984 0.438109 0.652862
v -0.600984 -0.438109 0.652862
v -0.662875 0.500000 0.652862
v -0.662875 -0.500000 0.652862
v -0.114818 0.420483 -0.093690
v -0.128332 0.406969 -0.080176
v -0.128332 -0.406969 -0.080176
v -0.114818 -0.420483 -0.093690
v -0.194065 -0.406969 -0.080176
v -0.207579 -0.420483 -0.093690
v -0.207579 0.420483 -0.093690
v -0.194065 0.406969 -0.080176
v 0.221040 0.428714 -0.093690
v 0.207526 0.415201 -0.080176
v 0.207526 -0.415201 -0.080176
v 0.221040 -0.428714 -0.093690
v 0.129259 -0.415201 -0.080176
v 0.115745 -0.428714 -0.093690
v 0.115745 0.428714 -0.093690
v 0.129259 0.415201 -0.080176
vt 0.390473 0.908085
vt 0.609527 0.908085
vt 0.605121 0.912855
vt 0.394879 0.912855
vt 0.609527 0.942729
vt 0.605121 0.937959
vt 0.390473 0.942729
vt 0.394879 0.937959
vt 0.390473 0.804153
vt 0.609527 0.804153
vt 0.607179 0.806776
vt 0.392821 0.806776
vt 0.609527 0.838797
vt 0.607179 0.836174
vt 0.390473 0.838797
vt 0.392821 0.836174
vt 0.392821 0.836174
vt 0.607179 0.836174
vt 0.607179 0.806776
vt 0.392821 0.806776
vt 0.396200 0.810549
vt 0.603800 0.810549
vt 0.603800 0.832401
vt 0.396200 0.832401
vt 0.605121 0.912855
vt 0.394879 0.912855
vt 0.601742 0.916512
vt 0.398258 0.916512
vt 0.394879 0.937959
vt 0.398258 0.934301
vt 0.605121 0.937959
vt 0.601742 0.934302
vt 0.375000 0.000000
vt 0.625000 0.000000
vt 0.625000 0.250000
vt 0.375000 0.250000
vt 0.375000 0.460208
vt 0.625000 0.460208
vt 0.625000 0.500000
vt 0.375000 0.500000
vt 0.625000 0.750000
vt 0.375000 0.750000
vt 0.335208 0.500000
vt 0.335208 0.750000
vt 0.831459 0.500000
vt 0.875000 0.500000
vt 0.875000 0.750000
vt 0.831459 0.750000
vt 0.609527 0.771068
vt 0.390473 0.771068
vt 0.625000 0.956459
vt 0.625000 1.000000
vt 0.609527 0.978932
vt 0.609527 0.942729
vt 0.625000 1.000000
vt 0.609527 0.978932
vt 0.375000 0.789792
vt 0.390473 0.804153
vt 0.375000 1.000000
vt 0.390473 0.978932
vt 0.375000 1.000000
vt 0.375000 0.956459
vt 0.390473 0.942729
vt 0.390473 0.978932
vt 0.375000 0.914792
vt 0.390473 0.908085
vt 0.375000 0.873125
vt 0.390473 0.873441
vt 0.375000 0.831459
vt 0.390473 0.838797
vt 0.625000 0.789792
vt 0.609527 0.804154
vt 0.625000 0.831459
vt 0.609527 0.838797
vt 0.625000 0.873125
vt 0.609527 0.873441
vt 0.625000 0.914792
vt 0.609527 0.908085
vt 0.664792 0.500000
vt 0.664792 0.750000
vt 0.706459 0.500000
vt 0.706459 0.750000
vt 0.748125 0.500000
vt 0.748125 0.750000
vt 0.789792 0.500000
vt 0.789792 0.750000
vt 0.125000 0.500000
vt 0.168541 0.500000
vt 0.168541 0.750000
vt 0.125000 0.750000
vt 0.210208 0.500000
vt 0.210208 0.750000
vt 0.251875 0.500000
vt 0.251875 0.750000
vt 0.293541 0.500000
vt 0.293541 0.750000
vt 0.625000 0.293541
vt 0.375000 0.293541
vt 0.625000 0.335208
vt 0.375000 0.335208
vt 0.625000 0.376875
vt 0.375000 0.376875
vt 0.625000 0.418541
vt 0.375000 0.418541
vt 0.375000 0.000000
vt 0.625000 0.000000
vt 0.609527 0.978932
vt 0.390473 0.978932
vt 0.609527 0.771068
vt 0.390473 0.771068
vt 0.390473 0.873441
vt 0.609527 0.873441
vn 0.0000 0.0000 1.0000
vn -1.0000 0.0000 0.0000
vn 1.0000 0.0000 0.0000
vn 0.7071 0.0000 0.7071
vn 0.0000 -0.7071 0.7071
vn 0.0000 0.7071 0.7071
vn -0.7071 0.0000 0.7071
vn 0.0000 0.0000 -1.0000
vn 0.0000 -1.0000 0.0000
vn 0.0000 1.0000 0.0000
vn 0.6435 0.6435 0.4145
vn -0.8407 0.0000 -0.5415
vn 0.6435 -0.6435 0.4145
vn 0.8407 0.0000 0.5415
usemtl Material.003
s off
f 48/1/1 55/2/1 58/3/1 57/4/1
f 55/2/1 56/5/1 59/6/1 58/3/1
f 56/5/1 47/7/1 60/8/1 59/6/1
f 47/7/1 48/1/1 57/4/1 60/8/1
f 51/9/1 52/10/1 62/11/1 61/12/1
f 52/10/1 53/13/1 63/14/1 62/11/1
f 53/13/1 50/15/1 64/16/1 63/14/1
f 50/15/1 51/9/1 61/12/1 64/16/1
f 63/14/2 64/16/2 82/17/2 83/18/2
f 61/12/3 62/11/3 77/19/3 80/20/3
f 79/21/1 78/22/1 84/23/1 81/24/1
f 57/4/3 58/3/3 69/25/3 72/26/3
f 70/27/4 71/28/4 72/26/4 69/25/4
f 74/29/5 72/26/5 71/28/5 73/30/5
f 69/25/6 75/31/6 76/32/6 70/27/6
f 75/31/7 74/29/7 73/30/7 76/32/7
f 78/22/4 79/21/4 80/20/4 77/19/4
f 82/17/5 80/20/5 79/21/5 81/24/5
f 77/19/6 83/18/6 84/23/6 78/22/6
f 83/18/7 82/17/7 81/24/7 84/23/7
f 71/28/1 70/27/1 76/32/1 73/30/1
usemtl Material.004
f 1/33/2 2/34/2 4/35/2 3/36/2
f 17/37/8 26/38/8 8/39/8 7/40/8
f 7/40/3 8/39/3 6/41/3 5/42/3
f 17/43/9 7/40/9 5/42/9 31/44/9
f 22/45/10 4/46/10 2/47/10 36/48/10
f 5/42/1 6/41/1 10/49/1 9/50/1
f 36/51/1 2/52/1 11/53/1 46/54/1
f 11/53/11 2/52/11 67/55/11 65/56/11
f 31/57/1 5/42/1 9/50/1 41/58/1
f 60/8/9 57/4/9 72/26/9 74/29/9
f 67/55/1 68/59/1 66/60/1 65/56/1
f 1/61/1 27/62/1 37/63/1 12/64/1
f 27/62/1 28/65/1 38/66/1 37/63/1
f 28/65/1 29/67/1 39/68/1 38/66/1
f 29/67/1 30/69/1 40/70/1 39/68/1
f 30/69/1 31/57/1 41/58/1 40/70/1
f 6/41/1 32/71/1 42/72/1 10/49/1
f 32/71/1 33/73/1 43/74/1 42/72/1
f 33/73/1 34/75/1 44/76/1 43/74/1
f 34/75/1 35/77/1 45/78/1 44/76/1
f 35/77/1 36/51/1 46/54/1 45/78/1
f 8/39/10 26/79/10 32/80/10 6/41/10
f 26/79/10 25/81/10 33/82/10 32/80/10
f 25/81/10 24/83/10 34/84/10 33/82/10
f 24/83/10 23/85/10 35/86/10 34/84/10
f 23/85/10 22/45/10 36/48/10 35/86/10
f 3/87/9 21/88/9 27/89/9 1/90/9
f 21/88/9 20/91/9 28/92/9 27/89/9
f 20/91/9 19/93/9 29/94/9 28/92/9
f 19/93/9 18/95/9 30/96/9 29/94/9
f 18/95/9 17/43/9 31/44/9 30/96/9
f 3/36/8 4/35/8 22/97/8 21/98/8
f 21/98/8 22/97/8 23/99/8 20/100/8
f 20/100/8 23/99/8 24/101/8 19/102/8
f 19/102/8 24/101/8 25/103/8 18/104/8
f 18/104/8 25/103/8 26/38/8 17/37/8
f 62/11/10 63/14/10 83/18/10 77/19/10
f 58/3/10 59/6/10 75/31/10 69/25/10
f 59/6/2 60/8/2 74/29/2 75/31/2
f 64/16/9 61/12/9 80/20/9 82/17/9
f 2/34/12 1/33/12 68/105/12 67/106/12
f 1/61/13 12/64/13 66/60/13 68/59/13
usemtl Material.005
f 46/54/9 11/53/9 16/107/9 56/5/9
f 47/7/1 56/5/1 16/107/1 15/108/1
f 9/50/2 10/49/2 13/109/2 14/110/2
f 11/53/3 12/64/3 15/108/3 16/107/3
f 41/58/10 9/50/10 14/110/10 51/9/10
f 12/64/10 37/63/10 47/7/10 15/108/10
f 37/63/10 38/66/10 48/1/10 47/7/10
f 38/66/10 39/68/10 49/111/10 48/1/10
f 39/68/10 40/70/10 50/15/10 49/111/10
f 40/70/10 41/58/10 51/9/10 50/15/10
f 14/110/1 13/109/1 52/10/1 51/9/1
f 50/15/1 53/13/1 54/112/1 49/111/1
f 49/111/1 54/112/1 55/2/1 48/1/1
f 10/49/9 42/72/9 52/10/9 13/109/9
f 42/72/9 43/74/9 53/13/9 52/10/9
f 43/74/9 44/76/9 54/112/9 53/13/9
f 44/76/9 45/78/9 55/2/9 54/112/9
f 45/78/9 46/54/9 56/5/9 55/2/9
f 12/64/14 11/53/14 65/56/14 66/60/14
