# Blender v2.80 (sub 75) OBJ File: 'simon.blend'
# www.blender.org
mtllib simon.mtl
o Cylinder
v -0.000000 -0.202874 -9.999996
v -0.000001 0.202874 -4.955435
v 1.950903 -0.202874 -9.807849
v 0.966758 0.202874 -4.860218
v 3.826834 -0.202874 -9.238791
v 1.896363 0.202874 -4.578225
v 5.555702 -0.202874 -8.314692
v 2.753093 0.202874 -4.120294
v 7.071067 -0.202874 -7.071064
v 3.504023 0.202874 -3.504020
v 8.314696 -0.202874 -5.555698
v 4.120297 0.202874 -2.753090
v 9.238794 -0.202874 -3.826831
v 4.578228 0.202874 -1.896361
v 9.807852 -0.202874 -1.950900
v 4.860221 0.202874 -0.966755
v 9.999999 -0.202874 0.000003
v 4.955438 0.202874 0.000003
v 9.807853 -0.202874 1.950905
v 4.860221 0.202874 0.966761
v 9.238795 -0.202874 3.826836
v 4.578228 0.202874 1.896368
v 8.314696 -0.202874 5.555706
v 4.120297 0.202874 2.753097
v 7.071067 -0.202874 7.071071
v 3.504025 0.202874 3.504026
v 5.555702 -0.202874 8.314700
v 2.753092 0.202874 4.120300
v 3.826833 -0.202874 9.238800
v 1.896363 0.202874 4.578232
v 1.950900 -0.202874 9.807857
v 0.966756 0.202874 4.860225
v -0.000004 -0.202874 10.000005
v -0.000002 0.202874 4.955442
v -1.950908 -0.202874 9.807856
v -0.966759 0.202874 4.860224
v -3.826839 -0.202874 9.238797
v -1.896368 0.202874 4.578230
v -5.555707 -0.202874 8.314697
v -2.753097 0.202874 4.120298
v -7.071073 -0.202874 7.071067
v -3.504026 0.202874 3.504025
v -8.314701 -0.202874 5.555700
v -4.120299 0.202874 2.753094
v -9.238799 -0.202874 3.826830
v -4.578229 0.202874 1.896365
v -9.807855 -0.202874 1.950898
v -4.860221 0.202874 0.966758
v -10.000000 -0.202874 -0.000006
v -4.955438 0.202874 -0.000004
v -9.807852 -0.202874 -1.950910
v -4.860220 0.202874 -0.966760
v -9.238791 -0.202874 -3.826842
v -4.578227 0.202874 -1.896365
v -8.314690 -0.202874 -5.555709
v -4.120293 0.202874 -2.753096
v -7.071059 -0.202874 -7.071073
v -3.504019 0.202874 -3.504026
v -5.555691 -0.202874 -8.314700
v -2.753089 0.202874 -4.120297
v -3.826821 -0.202874 -9.238797
v -1.896359 0.202874 -4.578227
v -1.950889 -0.202874 -9.807852
v -0.966748 0.202874 -4.860219
v 1.950903 0.202874 -9.807849
v -0.000000 0.202874 -9.999996
v 3.826834 0.202874 -9.238791
v 5.555702 0.202874 -8.314692
v 7.071067 0.202874 -7.071064
v 8.314696 0.202874 -5.555698
v 9.238794 0.202874 -3.826831
v 9.807852 0.202874 -1.950900
v 9.999999 0.202874 0.000003
v 9.807853 0.202874 1.950905
v 9.238795 0.202874 3.826836
v 8.314696 0.202874 5.555706
v 7.071067 0.202874 7.071071
v 5.555702 0.202874 8.314700
v 3.826833 0.202874 9.238800
v 1.950900 0.202874 9.807857
v -0.000004 0.202874 10.000005
v -1.950908 0.202874 9.807856
v -3.826839 0.202874 9.238797
v -5.555707 0.202874 8.314697
v -7.071073 0.202874 7.071067
v -8.314701 0.202874 5.555700
v -9.238799 0.202874 3.826830
v -9.807855 0.202874 1.950898
v -10.000000 0.202874 -0.000006
v -9.807852 0.202874 -1.950910
v -9.238791 0.202874 -3.826842
v -8.314690 0.202874 -5.555709
v -7.071059 0.202874 -7.071073
v -5.555691 0.202874 -8.314700
v -3.826821 0.202874 -9.238797
v -1.950889 0.202874 -9.807852
v 1.874576 0.202874 -9.424129
v -0.000000 0.202874 -9.608758
v 3.677114 0.202874 -8.877335
v 5.338342 0.202874 -7.989390
v 6.794420 0.202874 -6.794417
v 7.989394 0.202874 -5.338338
v 8.877337 0.202874 -3.677110
v 9.424131 0.202874 -1.874573
v 9.608761 0.202874 0.000003
v 9.424131 0.202874 1.874579
v 8.877338 0.202874 3.677116
v 7.989394 0.202874 5.338345
v 6.794420 0.202874 6.794424
v 5.338341 0.202874 7.989397
v 3.677112 0.202874 8.877343
v 1.874574 0.202874 9.424136
v -0.000003 0.202874 9.608767
v -1.874581 0.202874 9.424135
v -3.677119 0.202874 8.877340
v -5.338347 0.202874 7.989394
v -6.794425 0.202874 6.794420
v -7.989398 0.202874 5.338340
v -8.877342 0.202874 3.677110
v -9.424133 0.202874 1.874571
v -9.608762 0.202874 -0.000006
v -9.424131 0.202874 -1.874583
v -8.877335 0.202874 -3.677121
v -7.989387 0.202874 -5.338348
v -6.794412 0.202874 -6.794425
v -5.338331 0.202874 -7.989398
v -3.677101 0.202874 -8.877339
v -1.874562 0.202874 -9.424130
v 3.677114 0.402874 -8.877335
v 1.874576 0.402874 -9.424129
v 5.338342 0.402874 -7.989390
v 6.794420 0.402874 -6.794417
v 7.989394 0.402874 -5.338338
v 8.877337 0.402874 -3.677110
v 9.424131 0.402874 -1.874573
v 1.896363 0.402874 -4.578225
v 0.966758 0.402874 -4.860218
v 2.753093 0.402874 -4.120294
v 3.504023 0.402874 -3.504020
v 4.120297 0.402874 -2.753090
v 4.578228 0.402874 -1.896361
v 4.860221 0.402874 -0.966755
v -8.877335 0.402874 -3.677121
v -9.424131 0.402874 -1.874583
v -7.989387 0.402874 -5.338348
v -6.794412 0.402874 -6.794425
v -5.338331 0.402874 -7.989398
v -3.677101 0.402874 -8.877339
v -1.874562 0.402874 -9.424130
v -4.578227 0.402874 -1.896365
v -4.860220 0.402874 -0.966760
v -4.120293 0.402874 -2.753096
v -3.504019 0.402874 -3.504026
v -2.753089 0.402874 -4.120297
v -1.896359 0.402874 -4.578227
v -0.966748 0.402874 -4.860219
v -3.677119 0.402874 8.877340
v -1.874581 0.402874 9.424135
v -5.338347 0.402874 7.989394
v -6.794425 0.402874 6.794420
v -7.989398 0.402874 5.338340
v -8.877342 0.402874 3.677110
v -9.424133 0.402874 1.874571
v -1.896368 0.402874 4.578230
v -0.966759 0.402874 4.860224
v -2.753097 0.402874 4.120298
v -3.504026 0.402874 3.504025
v -4.120299 0.402874 2.753094
v -4.578229 0.402874 1.896365
v -4.860221 0.402874 0.966758
v 8.877338 0.402874 3.677116
v 9.424131 0.402874 1.874579
v 7.989394 0.402874 5.338345
v 6.794420 0.402874 6.794424
v 5.338341 0.402874 7.989397
v 3.677112 0.402874 8.877343
v 1.874574 0.402874 9.424136
v 4.578228 0.402874 1.896368
v 4.860221 0.402874 0.966761
v 4.120297 0.402874 2.753097
v 3.504025 0.402874 3.504026
v 2.753092 0.402874 4.120300
v 1.896363 0.402874 4.578232
v 0.966756 0.402874 4.860225
vt 1.000000 0.500000
vt 1.000000 1.000000
vt 0.968750 1.000000
vt 0.968750 0.500000
vt 0.937500 1.000000
vt 0.937500 0.500000
vt 0.906250 1.000000
vt 0.906250 0.500000
vt 0.875000 1.000000
vt 0.875000 0.500000
vt 0.843750 1.000000
vt 0.843750 0.500000
vt 0.812500 1.000000
vt 0.812500 0.500000
vt 0.781250 1.000000
vt 0.781250 0.500000
vt 0.750000 1.000000
vt 0.750000 0.500000
vt 0.718750 1.000000
vt 0.718750 0.500000
vt 0.687500 1.000000
vt 0.687500 0.500000
vt 0.656250 1.000000
vt 0.656250 0.500000
vt 0.625000 1.000000
vt 0.625000 0.500000
vt 0.593750 1.000000
vt 0.593750 0.500000
vt 0.562500 1.000000
vt 0.562500 0.500000
vt 0.531250 1.000000
vt 0.531250 0.500000
vt 0.500000 1.000000
vt 0.500000 0.500000
vt 0.468750 1.000000
vt 0.468750 0.500000
vt 0.437500 1.000000
vt 0.437500 0.500000
vt 0.406250 1.000000
vt 0.406250 0.500000
vt 0.375000 1.000000
vt 0.375000 0.500000
vt 0.343750 1.000000
vt 0.343750 0.500000
vt 0.312500 1.000000
vt 0.312500 0.500000
vt 0.281250 1.000000
vt 0.281250 0.500000
vt 0.250000 1.000000
vt 0.250000 0.500000
vt 0.218750 1.000000
vt 0.218750 0.500000
vt 0.187500 1.000000
vt 0.187500 0.500000
vt 0.156250 1.000000
vt 0.156250 0.500000
vt 0.125000 1.000000
vt 0.125000 0.500000
vt 0.093750 1.000000
vt 0.093750 0.500000
vt 0.062500 1.000000
vt 0.062500 0.500000
vt 0.273202 0.366645
vt 0.250000 0.368931
vt 0.226798 0.366645
vt 0.204488 0.359878
vt 0.183926 0.348887
vt 0.165903 0.334097
vt 0.151113 0.316074
vt 0.140123 0.295513
vt 0.133355 0.273202
vt 0.131069 0.250000
vt 0.133355 0.226798
vt 0.140122 0.204487
vt 0.151113 0.183926
vt 0.165903 0.165903
vt 0.183926 0.151113
vt 0.204487 0.140123
vt 0.226798 0.133355
vt 0.250000 0.131069
vt 0.273202 0.133355
vt 0.295513 0.140122
vt 0.316074 0.151113
vt 0.334097 0.165903
vt 0.348887 0.183926
vt 0.359877 0.204487
vt 0.366645 0.226798
vt 0.368930 0.250000
vt 0.366645 0.273202
vt 0.359878 0.295513
vt 0.348887 0.316074
vt 0.334097 0.334097
vt 0.316074 0.348887
vt 0.295513 0.359877
vt 0.031250 1.000000
vt 0.031250 0.500000
vt 0.000000 1.000000
vt 0.000000 0.500000
vt 0.750000 0.490000
vt 0.796822 0.485388
vt 0.841844 0.471731
vt 0.883337 0.449553
vt 0.919706 0.419706
vt 0.949553 0.383337
vt 0.971731 0.341844
vt 0.985388 0.296822
vt 0.990000 0.250000
vt 0.985388 0.203178
vt 0.971731 0.158156
vt 0.949553 0.116663
vt 0.919706 0.080294
vt 0.883337 0.050447
vt 0.841844 0.028269
vt 0.796822 0.014612
vt 0.750000 0.010000
vt 0.703178 0.014612
vt 0.658156 0.028269
vt 0.616663 0.050447
vt 0.580294 0.080294
vt 0.550447 0.116663
vt 0.528269 0.158156
vt 0.514611 0.203179
vt 0.510000 0.250000
vt 0.514612 0.296822
vt 0.528269 0.341844
vt 0.550447 0.383337
vt 0.580295 0.419706
vt 0.616663 0.449553
vt 0.658156 0.471731
vt 0.703179 0.485389
vt 0.250000 0.480610
vt 0.294990 0.476179
vt 0.296822 0.485388
vt 0.250000 0.490000
vt 0.338251 0.463056
vt 0.341844 0.471731
vt 0.378120 0.441745
vt 0.383337 0.449553
vt 0.413066 0.413066
vt 0.419706 0.419706
vt 0.441745 0.378120
vt 0.449553 0.383337
vt 0.463056 0.338251
vt 0.471731 0.341844
vt 0.476179 0.294990
vt 0.485388 0.296822
vt 0.480610 0.250000
vt 0.490000 0.250000
vt 0.476179 0.205010
vt 0.485388 0.203178
vt 0.463056 0.161749
vt 0.471731 0.158156
vt 0.441745 0.121880
vt 0.449553 0.116663
vt 0.413066 0.086934
vt 0.419706 0.080294
vt 0.378120 0.058255
vt 0.383337 0.050447
vt 0.338251 0.036944
vt 0.341844 0.028269
vt 0.294990 0.023821
vt 0.296822 0.014612
vt 0.250000 0.019390
vt 0.250000 0.010000
vt 0.205010 0.023821
vt 0.203178 0.014612
vt 0.161749 0.036944
vt 0.158156 0.028269
vt 0.121880 0.058255
vt 0.116663 0.050447
vt 0.086934 0.086934
vt 0.080294 0.080294
vt 0.058254 0.121880
vt 0.050447 0.116663
vt 0.036944 0.161749
vt 0.028269 0.158156
vt 0.023821 0.205010
vt 0.014611 0.203179
vt 0.019390 0.250000
vt 0.010000 0.250000
vt 0.023821 0.294990
vt 0.014612 0.296822
vt 0.036944 0.338251
vt 0.028269 0.341844
vt 0.058255 0.378120
vt 0.050447 0.383337
vt 0.086934 0.413066
vt 0.080295 0.419706
vt 0.121880 0.441746
vt 0.116663 0.449553
vt 0.161750 0.463056
vt 0.158156 0.471731
vt 0.205011 0.476179
vt 0.203179 0.485389
vt 0.295513 0.140122
vt 0.316074 0.151113
vt 0.463056 0.161749
vt 0.441745 0.121880
vt 0.334097 0.165903
vt 0.476179 0.205010
vt 0.366645 0.226798
vt 0.348887 0.183926
vt 0.359877 0.204487
vt 0.413066 0.086934
vt 0.378120 0.058255
vt 0.338251 0.036944
vt 0.273202 0.133355
vt 0.294990 0.023821
vt 0.151113 0.183926
vt 0.165903 0.165903
vt 0.205010 0.023821
vt 0.161749 0.036944
vt 0.226798 0.133355
vt 0.183926 0.151113
vt 0.204487 0.140123
vt 0.023821 0.205010
vt 0.133355 0.226798
vt 0.121880 0.058255
vt 0.086934 0.086934
vt 0.058254 0.121880
vt 0.140122 0.204487
vt 0.036944 0.161749
vt 0.023821 0.294990
vt 0.036944 0.338251
vt 0.133355 0.273202
vt 0.165903 0.334097
vt 0.151113 0.316074
vt 0.140123 0.295513
vt 0.205011 0.476179
vt 0.226798 0.366645
vt 0.161750 0.463056
vt 0.058255 0.378120
vt 0.086934 0.413066
vt 0.183926 0.348887
vt 0.121880 0.441746
vt 0.204488 0.359878
vt 0.359878 0.295513
vt 0.348887 0.316074
vt 0.338251 0.463056
vt 0.378120 0.441745
vt 0.334097 0.334097
vt 0.294990 0.476179
vt 0.273202 0.366645
vt 0.316074 0.348887
vt 0.295513 0.359877
vt 0.413066 0.413066
vt 0.441745 0.378120
vt 0.463056 0.338251
vt 0.366645 0.273202
vt 0.476179 0.294990
vn 0.0980 0.0000 -0.9952
vn 0.2903 0.0000 -0.9569
vn 0.4714 0.0000 -0.8819
vn 0.6344 0.0000 -0.7730
vn 0.7730 0.0000 -0.6344
vn 0.8819 0.0000 -0.4714
vn 0.9569 0.0000 -0.2903
vn 0.9952 0.0000 -0.0980
vn 0.9952 0.0000 0.0980
vn 0.9569 0.0000 0.2903
vn 0.8819 0.0000 0.4714
vn 0.7730 0.0000 0.6344
vn 0.6344 0.0000 0.7730
vn 0.4714 0.0000 0.8819
vn 0.2903 0.0000 0.9569
vn 0.0980 0.0000 0.9952
vn -0.0980 0.0000 0.9952
vn -0.2903 0.0000 0.9569
vn -0.4714 0.0000 0.8819
vn -0.6344 0.0000 0.7730
vn -0.7730 0.0000 0.6344
vn -0.8819 0.0000 0.4714
vn -0.9569 0.0000 0.2903
vn -0.9952 0.0000 0.0980
vn -0.9952 0.0000 -0.0980
vn -0.9569 0.0000 -0.2903
vn -0.8819 0.0000 -0.4714
vn -0.7730 0.0000 -0.6344
vn -0.6344 0.0000 -0.7730
vn -0.4714 0.0000 -0.8819
vn 0.0000 1.0000 -0.0000
vn -0.2903 0.0000 -0.9569
vn -0.0980 0.0000 -0.9952
vn 0.0000 -1.0000 -0.0000
vn 0.1951 0.0000 -0.9808
vn -0.9808 0.0000 0.1951
vn 0.9808 0.0000 0.1951
vn -0.1951 0.0000 -0.9808
vn -0.1951 0.0000 0.9808
vn 0.9808 0.0000 -0.1951
vn -0.9808 0.0000 -0.1951
vn 0.1951 0.0000 0.9808
usemtl Material.001
s off
f 1/1/1 66/2/1 65/3/1 3/4/1
f 3/4/2 65/3/2 67/5/2 5/6/2
f 5/6/3 67/5/3 68/7/3 7/8/3
f 7/8/4 68/7/4 69/9/4 9/10/4
f 9/10/5 69/9/5 70/11/5 11/12/5
f 11/12/6 70/11/6 71/13/6 13/14/6
f 13/14/7 71/13/7 72/15/7 15/16/7
f 15/16/8 72/15/8 73/17/8 17/18/8
f 17/18/9 73/17/9 74/19/9 19/20/9
f 19/20/10 74/19/10 75/21/10 21/22/10
f 21/22/11 75/21/11 76/23/11 23/24/11
f 23/24/12 76/23/12 77/25/12 25/26/12
f 25/26/13 77/25/13 78/27/13 27/28/13
f 27/28/14 78/27/14 79/29/14 29/30/14
f 29/30/15 79/29/15 80/31/15 31/32/15
f 31/32/16 80/31/16 81/33/16 33/34/16
f 33/34/17 81/33/17 82/35/17 35/36/17
f 35/36/18 82/35/18 83/37/18 37/38/18
f 37/38/19 83/37/19 84/39/19 39/40/19
f 39/40/20 84/39/20 85/41/20 41/42/20
f 41/42/21 85/41/21 86/43/21 43/44/21
f 43/44/22 86/43/22 87/45/22 45/46/22
f 45/46/23 87/45/23 88/47/23 47/48/23
f 47/48/24 88/47/24 89/49/24 49/50/24
f 49/50/25 89/49/25 90/51/25 51/52/25
f 51/52/26 90/51/26 91/53/26 53/54/26
f 53/54/27 91/53/27 92/55/27 55/56/27
f 55/56/28 92/55/28 93/57/28 57/58/28
f 57/58/29 93/57/29 94/59/29 59/60/29
f 59/60/30 94/59/30 95/61/30 61/62/30
f 4/63/31 2/64/31 64/65/31 62/66/31 60/67/31 58/68/31 56/69/31 54/70/31 52/71/31 50/72/31 48/73/31 46/74/31 44/75/31 42/76/31 40/77/31 38/78/31 36/79/31 34/80/31 32/81/31 30/82/31 28/83/31 26/84/31 24/85/31 22/86/31 20/87/31 18/88/31 16/89/31 14/90/31 12/91/31 10/92/31 8/93/31 6/94/31
f 61/62/32 95/61/32 96/95/32 63/96/32
f 63/96/33 96/95/33 66/97/33 1/98/33
f 1/99/34 3/100/34 5/101/34 7/102/34 9/103/34 11/104/34 13/105/34 15/106/34 17/107/34 19/108/34 21/109/34 23/110/34 25/111/34 27/112/34 29/113/34 31/114/34 33/115/34 35/116/34 37/117/34 39/118/34 41/119/34 43/120/34 45/121/34 47/122/34 49/123/34 51/124/34 53/125/34 55/126/34 57/127/34 59/128/34 61/129/34 63/130/34
f 98/131/31 97/132/31 65/133/31 66/134/31
f 97/132/31 99/135/31 67/136/31 65/133/31
f 99/135/31 100/137/31 68/138/31 67/136/31
f 100/137/31 101/139/31 69/140/31 68/138/31
f 101/139/31 102/141/31 70/142/31 69/140/31
f 102/141/31 103/143/31 71/144/31 70/142/31
f 103/143/31 104/145/31 72/146/31 71/144/31
f 104/145/31 105/147/31 73/148/31 72/146/31
f 105/147/31 106/149/31 74/150/31 73/148/31
f 106/149/31 107/151/31 75/152/31 74/150/31
f 107/151/31 108/153/31 76/154/31 75/152/31
f 108/153/31 109/155/31 77/156/31 76/154/31
f 109/155/31 110/157/31 78/158/31 77/156/31
f 110/157/31 111/159/31 79/160/31 78/158/31
f 111/159/31 112/161/31 80/162/31 79/160/31
f 112/161/31 113/163/31 81/164/31 80/162/31
f 113/163/31 114/165/31 82/166/31 81/164/31
f 114/165/31 115/167/31 83/168/31 82/166/31
f 115/167/31 116/169/31 84/170/31 83/168/31
f 116/169/31 117/171/31 85/172/31 84/170/31
f 117/171/31 118/173/31 86/174/31 85/172/31
f 118/173/31 119/175/31 87/176/31 86/174/31
f 119/175/31 120/177/31 88/178/31 87/176/31
f 120/177/31 121/179/31 89/180/31 88/178/31
f 121/179/31 122/181/31 90/182/31 89/180/31
f 122/181/31 123/183/31 91/184/31 90/182/31
f 123/183/31 124/185/31 92/186/31 91/184/31
f 124/185/31 125/187/31 93/188/31 92/186/31
f 125/187/31 126/189/31 94/190/31 93/188/31
f 126/189/31 127/191/31 95/192/31 94/190/31
f 127/191/31 128/193/31 96/194/31 95/192/31
f 128/193/31 98/131/31 66/134/31 96/194/31
f 2/64/31 4/63/31 97/132/31 98/131/31
f 16/89/31 18/88/31 105/147/31 104/145/31
f 18/88/31 20/87/31 106/149/31 105/147/31
f 32/81/31 34/80/31 113/163/31 112/161/31
f 34/80/31 36/79/31 114/165/31 113/163/31
f 48/73/31 50/72/31 121/179/31 120/177/31
f 50/72/31 52/71/31 122/181/31 121/179/31
f 64/65/31 2/64/31 98/131/31 128/193/31
usemtl Material.002
f 28/83/30 30/82/30 183/195/30 182/196/30
f 108/153/11 107/151/11 171/197/11 173/198/11
f 26/84/29 28/83/29 182/196/29 181/199/29
f 107/151/10 106/149/10 172/200/10 171/197/10
f 106/149/35 20/87/35 179/201/35 172/200/35
f 24/85/28 26/84/28 181/199/28 180/202/28
f 179/201/31 178/203/31 171/197/31 172/200/31
f 178/203/31 180/202/31 173/198/31 171/197/31
f 180/202/31 181/199/31 174/204/31 173/198/31
f 181/199/31 182/196/31 175/205/31 174/204/31
f 182/196/31 183/195/31 176/206/31 175/205/31
f 183/195/31 184/207/31 177/208/31 176/206/31
f 109/155/12 108/153/12 173/198/12 174/204/12
f 30/82/32 32/81/32 184/207/32 183/195/32
f 110/157/13 109/155/13 174/204/13 175/205/13
f 111/159/14 110/157/14 175/205/14 176/206/14
f 20/87/26 22/86/26 178/203/26 179/201/26
f 112/161/15 111/159/15 176/206/15 177/208/15
f 32/81/36 112/161/36 177/208/36 184/207/36
f 22/86/27 24/85/27 180/202/27 178/203/27
usemtl Material.003
f 42/76/5 44/75/5 168/209/5 167/210/5
f 115/167/18 114/165/18 158/211/18 157/212/18
f 114/165/37 36/79/37 165/213/37 158/211/37
f 40/77/4 42/76/4 167/210/4 166/214/4
f 38/78/3 40/77/3 166/214/3 164/215/3
f 48/73/38 120/177/38 163/216/38 170/217/38
f 165/213/31 164/215/31 157/212/31 158/211/31
f 164/215/31 166/214/31 159/218/31 157/212/31
f 166/214/31 167/210/31 160/219/31 159/218/31
f 167/210/31 168/209/31 161/220/31 160/219/31
f 168/209/31 169/221/31 162/222/31 161/220/31
f 169/221/31 170/217/31 163/216/31 162/222/31
f 116/169/19 115/167/19 157/212/19 159/218/19
f 44/75/6 46/74/6 169/221/6 168/209/6
f 117/171/20 116/169/20 159/218/20 160/219/20
f 46/74/7 48/73/7 170/217/7 169/221/7
f 118/173/21 117/171/21 160/219/21 161/220/21
f 119/175/22 118/173/22 161/220/22 162/222/22
f 36/79/2 38/78/2 164/215/2 165/213/2
f 120/177/23 119/175/23 162/222/23 163/216/23
usemtl Material.004
f 123/183/26 122/181/26 144/223/26 143/224/26
f 122/181/39 52/71/39 151/225/39 144/223/39
f 56/69/12 58/68/12 153/226/12 152/227/12
f 54/70/11 56/69/11 152/227/11 150/228/11
f 64/65/40 128/193/40 149/229/40 156/230/40
f 128/193/32 127/191/32 148/231/32 149/229/32
f 151/225/31 150/228/31 143/224/31 144/223/31
f 150/228/31 152/227/31 145/232/31 143/224/31
f 152/227/31 153/226/31 146/233/31 145/232/31
f 153/226/31 154/234/31 147/235/31 146/233/31
f 154/234/31 155/236/31 148/231/31 147/235/31
f 155/236/31 156/230/31 149/229/31 148/231/31
f 58/68/13 60/67/13 154/234/13 153/226/13
f 124/185/27 123/183/27 143/224/27 145/232/27
f 60/67/14 62/66/14 155/236/14 154/234/14
f 125/187/28 124/185/28 145/232/28 146/233/28
f 62/66/15 64/65/15 156/230/15 155/236/15
f 126/189/29 125/187/29 146/233/29 147/235/29
f 127/191/30 126/189/30 147/235/30 148/231/30
f 52/71/10 54/70/10 150/228/10 151/225/10
usemtl Material.005
f 12/91/22 14/90/22 141/237/22 140/238/22
f 100/137/3 99/135/3 129/239/3 131/240/3
f 10/92/21 12/91/21 140/238/21 139/241/21
f 99/135/2 97/132/2 130/242/2 129/239/2
f 97/132/41 4/63/41 137/243/41 130/242/41
f 8/93/20 10/92/20 139/241/20 138/244/20
f 137/243/31 136/245/31 129/239/31 130/242/31
f 136/245/31 138/244/31 131/240/31 129/239/31
f 138/244/31 139/241/31 132/246/31 131/240/31
f 139/241/31 140/238/31 133/247/31 132/246/31
f 140/238/31 141/237/31 134/248/31 133/247/31
f 141/237/31 142/249/31 135/250/31 134/248/31
f 101/139/4 100/137/4 131/240/4 132/246/4
f 14/90/23 16/89/23 142/249/23 141/237/23
f 102/141/5 101/139/5 132/246/5 133/247/5
f 103/143/6 102/141/6 133/247/6 134/248/6
f 4/63/18 6/94/18 136/245/18 137/243/18
f 104/145/7 103/143/7 134/248/7 135/250/7
f 16/89/42 104/145/42 135/250/42 142/249/42
f 6/94/19 8/93/19 138/244/19 136/245/19
