# Blender v2.80 (sub 75) OBJ File: 'wip_boat_optimized.blend'
# www.blender.org
mtllib wip_boat_optimized.mtl
o Cube_Cube.002
v -9.701530 1.330992 0.405215
v -10.040283 2.687565 0.405472
v -10.040283 2.687565 -0.049452
v 5.113308 -1.357082 -1.639460
v 4.262041 -1.449997 -1.640412
v 1.023961 -1.716552 -1.639412
v -0.818066 -1.747253 -1.638759
v -2.433305 -1.679902 -1.638964
v -3.235234 -1.598151 -1.641429
v -6.212366 -1.448641 -1.593276
v -6.967411 -1.171428 -1.459902
v -7.920478 -0.774325 -0.626813
v -8.531410 -0.176737 -0.142384
v -8.983685 0.496409 -0.132075
v -9.458522 2.594351 -0.068306
v -8.503009 1.888298 -0.721956
v -7.722455 1.474830 -1.268268
v -6.967410 1.395048 -2.101357
v -5.901147 1.274785 -1.940336
v -3.693702 1.108136 -1.968798
v -2.437141 1.032964 -1.968063
v -0.200210 0.920813 -1.968063
v 4.031243 0.809219 -1.968063
v 5.113308 0.837297 -1.968063
v -8.983685 0.496409 0.405472
v -8.505901 -0.180771 0.410987
v -7.920478 -0.774325 0.626502
v -6.967410 -1.171428 1.743353
v -6.212365 -1.448641 2.001593
v -3.267426 -1.595175 2.004181
v -2.431910 -1.680018 2.002380
v -0.927051 -1.744060 2.002896
v 0.855653 -1.727548 1.999812
v 4.337016 -1.446436 2.002448
v 5.113308 -1.357082 2.002896
v 5.113308 0.837297 2.254642
v 4.184711 0.809337 2.254531
v -0.050215 0.919212 2.255512
v -2.676575 1.050790 2.254642
v -3.947231 1.115716 2.254642
v -5.901147 1.274785 2.253876
v -6.967411 1.395048 2.307952
v -7.722456 1.474830 1.780844
v -8.477501 1.884264 1.037470
v -9.458522 2.594351 0.425283
v 7.185102 -0.908710 -1.639460
v 7.367621 -0.828326 -1.536655
v 7.101900 0.902174 -2.002500
v 7.247972 -0.882103 2.009408
v 7.371749 -0.826543 1.888429
v 7.115411 0.903895 2.302336
v -9.731028 1.402277 -0.068824
v -9.623885 1.205396 -0.075535
v 4.932709 -0.825329 2.567474
v 5.113308 -1.158176 2.305494
v 4.365732 -1.237077 2.309106
v 0.271783 -1.073825 2.567339
v 0.801210 -1.498782 2.298707
v -0.933581 -1.497785 2.306017
v -2.635906 -0.956787 2.567574
v -2.437141 -1.433708 2.305494
v -3.235384 -1.353433 2.306717
v -6.212366 -0.739660 2.566192
v -6.212365 -1.198886 2.304191
v -6.967411 -0.511048 2.307952
v -6.967410 -0.938794 2.045952
v -7.869524 -0.195595 1.705348
v -7.902529 -0.570455 0.929101
v -8.498594 0.269252 0.975586
v -8.503327 -0.022240 0.713585
v -9.105865 0.851735 0.410569
v -0.100542 0.312857 2.254061
v -9.105865 0.851735 -0.115666
v -8.524102 0.273286 -0.783840
v -8.528836 -0.018207 -0.466925
v -7.869524 -0.195595 -1.268268
v -7.902529 -0.570455 -0.951354
v -6.967410 -0.511048 -2.101357
v -6.967410 -0.938794 -1.784443
v -6.212365 -0.739660 -2.234731
v -6.212365 -1.198886 -1.917817
v -2.916923 -0.941502 -2.282698
v -3.234754 -1.357377 -1.964286
v -2.437142 -1.433708 -1.964001
v -0.936245 -1.497561 -1.964727
v -0.296885 -1.066661 -2.280893
v 0.876306 -1.494561 -1.959694
v 1.582271 -1.014960 -2.281072
v 4.325409 -1.240921 -1.964817
v 4.985288 -0.814824 -2.280869
v 5.113308 -1.158176 -1.964001
v 7.365220 -0.373170 -2.165788
v 7.370842 -0.669707 -1.827121
v 7.232968 -0.720328 -1.972415
v 7.247913 -0.418934 -2.272770
v 7.277730 -0.402017 2.559001
v 7.266074 -0.701513 2.314049
v 7.371799 -0.668450 2.194325
v 7.370905 -0.370995 2.467035
v -6.212365 1.306718 -2.234731
v -3.724390 1.110705 -2.282450
v -2.160775 1.025606 -2.280915
v -0.255589 0.923261 -2.280915
v 4.206362 0.808525 -2.280926
v 4.156434 0.806941 2.567514
v -0.200211 0.920813 2.567495
v -1.667695 1.006106 2.567495
v -2.928020 1.069347 2.567495
v -3.947231 1.115716 2.567495
v -6.212366 1.306718 2.566192
v 7.369415 0.932204 -2.154151
v 7.264272 0.918795 -2.266814
v 7.283760 0.921258 2.555809
v 7.367340 0.931971 2.468826
v 4.732647 -0.452149 -1.967936
v 4.692019 -0.413796 2.247796
v 3.930904 -0.471843 -1.968061
v 3.931242 -0.472906 2.249889
v 0.852565 -0.401538 -1.968061
v -0.461709 -0.359511 1.066117
v -2.217095 -0.259742 1.066110
v -1.543138 -0.294868 -1.968086
v -2.217490 -0.263450 -0.779533
v -3.193068 0.429788 -1.968061
v -3.731496 -0.173758 -1.968061
v -5.936573 -0.014689 2.253863
v 7.079961 -0.385787 2.302567
v -2.727334 0.058780 -1.968061
v -3.706215 0.141533 2.251537
v -2.744606 -0.256511 2.254644
v 0.285667 -0.375300 -1.968061
v 0.285667 -0.375300 2.254644
v -2.744605 -0.256511 -1.968061
v -0.461626 -0.358432 -0.779531
v -1.667818 -0.286510 2.254654
v -0.549746 0.447167 -0.649630
v -0.426674 0.309282 1.066131
v -2.181796 0.407269 -0.779925
v -2.043095 0.530835 0.936050
v -0.426720 0.309276 -0.779550
v -0.549836 0.447269 0.936117
v -2.041789 0.532189 -0.648061
v -2.180658 0.407049 1.066573
v 0.852560 -0.401802 2.254645
v 0.858579 -0.055388 -1.968061
v 0.858579 -0.055388 2.254644
v 1.218605 0.227577 2.254567
v 1.219691 0.230490 -1.968061
v 1.199844 0.285718 2.254529
v 1.197497 0.292288 -1.968058
v 3.927494 -0.090064 2.249889
v 3.927190 -0.088911 -1.968061
v 4.720830 -0.069335 -1.968061
v 4.707458 -0.076467 2.248787
v 4.986274 0.242217 -1.968244
v 4.954607 0.301264 -1.967972
v 4.983041 0.229978 2.254433
v 3.646800 0.215725 -1.968061
v 3.673527 0.282596 2.250097
v 3.645947 0.219115 2.249899
v 3.674047 0.283309 -1.968061
v 4.962086 0.294750 2.254965
v -3.730965 -0.173796 2.254637
v 0.291681 -0.029150 2.254644
v 0.291681 -0.029150 -1.968061
v -0.115144 0.269570 2.254644
v -0.102531 0.308855 -1.968061
v -0.115759 0.268529 -1.968061
v -3.714557 0.141537 -1.968778
v -3.849307 0.441917 -1.968061
v -3.879138 0.377333 -1.967871
v -3.830106 0.450011 2.254644
v -3.879754 0.381099 2.254712
v -2.727334 0.058780 2.254644
v -2.541208 0.373138 2.254644
v -2.515511 0.301628 2.254644
v -2.514410 0.305863 -1.968061
v -2.541122 0.371603 -1.968061
v 4.425937 0.276260 2.263572
v 7.066475 -0.387300 -2.002731
v -1.657640 1.005688 2.254643
v -5.936572 -0.014689 -1.940283
v -1.667694 1.006106 -1.968063
vt 0.733696 0.733868
vt 0.754719 0.733868
vt 0.755083 0.733868
vt 0.788043 0.733868
vt 0.787938 0.733868
vt 0.788043 0.733868
vt 0.731943 0.733868
vt 0.722486 0.733868
vt 0.732370 0.733868
vt 0.283517 0.500000
vt 0.281091 0.750000
vt 0.257004 0.500000
vt 0.439327 0.852312
vt 0.625000 0.859103
vt 0.625000 0.880228
vt 0.439327 0.894174
vt 0.625000 0.898371
vt 0.625000 0.913043
vt 0.625000 0.362673
vt 0.439327 0.351786
vt 0.625000 0.340163
vt 0.397035 0.507158
vt 0.374309 0.505554
vt 0.397486 0.498276
vt 0.439327 0.465535
vt 0.397661 0.467391
vt 0.397661 0.456052
vt 0.397661 0.406387
vt 0.375000 0.408517
vt 0.375000 0.382004
vt 0.397661 0.380302
vt 0.439327 0.389508
vt 0.375000 0.358751
vt 0.397661 0.358696
vt 0.397661 0.347214
vt 0.397661 0.260870
vt 0.397661 0.271739
vt 0.375000 0.271739
vt 0.375000 0.978261
vt 0.397661 0.978261
vt 0.375000 0.989130
vt 0.397661 0.956522
vt 0.439327 0.956522
vt 0.439327 0.967391
vt 0.397661 0.902798
vt 0.397661 0.891304
vt 0.397661 0.869660
vt 0.375000 0.891229
vt 0.375000 0.869565
vt 0.397661 0.844695
vt 0.439327 0.416561
vt 0.625000 0.390099
vt 0.625000 0.454335
vt 0.397661 0.782609
vt 0.439327 0.785229
vt 0.397661 0.793367
vt 0.624905 0.744842
vt 0.627830 0.733945
vt 0.625771 0.750320
vt 0.417312 0.000000
vt 0.439327 0.250000
vt 0.375001 0.250000
vt 0.629285 0.513248
vt 0.624899 0.506651
vt 0.625930 0.499614
vt 0.629377 0.511980
vt 0.629413 0.739677
vt 0.629413 0.739677
vt 0.769751 0.733868
vt 0.767761 0.733868
vt 0.787273 0.733868
vt 0.784394 0.516132
vt 0.777514 0.516132
vt 0.777174 0.516132
vt 0.734103 0.516132
vt 0.723166 0.516132
vt 0.713334 0.516132
vt 0.788043 0.516095
vt 0.762633 0.529268
vt 0.752923 0.516132
vt 0.766304 0.516132
vt 0.737356 0.529268
vt 0.762629 0.720732
vt 0.737357 0.720732
vt 0.762609 0.720732
vt 0.711957 0.516132
vt 0.711957 0.516132
vt 0.711957 0.733868
vt 0.679227 0.733868
vt 0.677757 0.733868
vt 0.677745 0.516132
vt 0.679234 0.516132
vt 0.659054 0.733866
vt 0.657737 0.516126
vt 0.657609 0.516132
vt 0.788043 0.516132
vt 0.786645 0.516132
vt 0.788043 0.516132
vt 0.766304 0.516132
vt 0.766304 0.733868
vt 0.670976 0.733868
vt 0.671384 0.750000
vt 0.657609 0.733868
vt 0.755228 0.516132
vt 0.762327 0.500000
vt 0.766304 0.516132
vt 0.734900 0.500000
vt 0.657609 0.516132
vt 0.670665 0.500000
vt 0.673186 0.516132
vt 0.439327 0.260870
vt 0.375000 0.260870
vt 0.788043 0.733868
vt 0.657609 0.733869
vt 0.657609 0.733844
vt 0.657609 0.733868
vt 0.766404 0.733868
vt 0.766304 0.733868
vt 0.733595 0.733868
vt 0.733596 0.516132
vt 0.733696 0.516132
vt 0.732410 0.516132
vt 0.397661 0.967391
vt 0.397661 0.989130
vt 0.439327 0.989130
vt 0.417312 1.000000
vt 0.374873 0.751680
vt 0.372217 0.500000
vt 0.625000 0.250000
vt 0.625000 0.000000
vt 0.625000 0.989130
vt 0.625000 1.000000
vt 0.875000 0.750000
vt 0.864130 0.750000
vt 0.864130 0.500000
vt 0.875000 0.500000
vt 0.711957 0.733868
vt 0.679348 0.733868
vt 0.679348 0.733868
vt 0.733696 0.733868
vt 0.330140 0.500000
vt 0.331218 0.750000
vt 0.831522 0.750000
vt 0.820652 0.750000
vt 0.820652 0.500000
vt 0.831522 0.500000
vt 0.842391 0.500000
vt 0.842391 0.750000
vt 0.853261 0.750000
vt 0.853261 0.500000
vt 0.135870 0.750000
vt 0.125000 0.750000
vt 0.125000 0.500000
vt 0.135870 0.500000
vt 0.146739 0.500000
vt 0.146739 0.750000
vt 0.157609 0.750000
vt 0.157609 0.500000
vt 0.168478 0.500000
vt 0.168478 0.750000
vt 0.179348 0.500000
vt 0.179348 0.750000
vt 0.375000 0.945652
vt 0.375000 0.903260
vt 0.397661 0.945652
vt 0.221740 0.750000
vt 0.222205 0.500000
vt 0.233751 0.500000
vt 0.233771 0.750000
vt 0.255435 0.750000
vt 0.375000 0.843909
vt 0.375000 0.793782
vt 0.342391 0.500000
vt 0.342391 0.750000
vt 0.397479 0.751206
vt 0.375000 0.782609
vt 0.439189 0.750891
vt 0.439328 0.945652
vt 0.625000 0.945652
vt 0.625000 0.956522
vt 0.625000 0.967391
vt 0.625000 0.978261
vt 0.439327 0.978261
vt 0.625000 0.260870
vt 0.625000 0.271739
vt 0.439327 0.271739
vt 0.625000 0.282609
vt 0.439328 0.282609
vt 0.625000 0.293478
vt 0.439327 0.293478
vt 0.625000 0.304348
vt 0.439327 0.304348
vt 0.397661 0.304348
vt 0.439186 0.498659
vt 0.397116 0.744178
vt 0.374448 0.744013
vt 0.375000 0.497217
vt 0.438774 0.744683
vt 0.438595 0.506062
vt 0.625000 0.796383
vt 0.657609 0.516138
vt 0.628271 0.516013
vt 0.375000 0.467391
vt 0.375000 0.455140
vt 0.679348 0.516132
vt 0.375000 0.347205
vt 0.784837 0.500000
vt 0.816172 0.516247
vt 0.375000 0.304348
vt 0.375000 0.293478
vt 0.397661 0.293478
vt 0.375000 0.282609
vt 0.397661 0.282609
vt 0.375000 0.967391
vt 0.375000 0.956522
vt 0.788043 0.750000
vt 0.816172 0.733779
vt 0.816172 0.516247
vt 0.816172 0.733779
vt 0.629377 0.511980
vt 0.628271 0.516013
vt 0.734103 0.750000
vt 0.679348 0.516132
vt 0.668478 0.733798
vt 0.712074 0.733868
vt 0.712079 0.516132
vt 0.762625 0.529268
vt 0.737356 0.720732
vt 0.627830 0.733945
vt 0.733696 0.516132
vt 0.766412 0.516132
vt 0.767753 0.516132
vt 0.657609 0.516132
vt 0.713574 0.733867
vt 0.739228 0.707246
vt 0.739226 0.542754
vt 0.760707 0.542754
vt 0.760726 0.707246
vt 0.737357 0.529268
vt 0.755228 0.750000
vt 0.773371 0.750000
vt 0.668139 0.733868
vn -0.0000 -0.0000 -1.0000
vn -0.0287 -0.0076 -0.9996
vn 0.0004 0.0024 -1.0000
vn 0.0167 -0.9999 -0.0023
vn -0.0000 -0.0001 1.0000
vn 0.0000 0.0000 1.0000
vn 0.0010 0.0005 -1.0000
vn 0.6347 -0.6812 -0.3649
vn 0.0703 -0.6622 -0.7460
vn 0.0134 -0.8189 -0.5738
vn 0.0032 -0.5947 -0.8040
vn -0.0332 -0.7992 -0.6001
vn -0.0242 -0.5599 -0.8282
vn -0.0552 -0.5800 -0.8127
vn -0.8017 -0.5345 -0.2675
vn -0.7820 -0.5493 0.2945
vn -0.6012 -0.4174 0.6815
vn -0.0486 -0.4965 0.8667
vn -0.0211 -0.4882 0.8725
vn -0.0332 -0.7760 0.6298
vn 0.0033 -0.5314 0.8471
vn -0.0000 0.0001 -1.0000
vn 0.0666 -0.5945 0.8013
vn -0.1171 0.9931 0.0098
vn -0.8785 -0.4775 -0.0171
vn -0.1167 0.9931 -0.0093
vn -0.9996 0.0275 0.0031
vn 0.0000 0.0011 1.0000
vn -0.8098 -0.5867 0.0016
vn 0.0319 0.9995 -0.0083
vn 0.0540 0.9985 0.0043
vn 0.0002 -0.0007 1.0000
vn 0.9998 -0.0174 0.0000
vn -0.9172 0.3985 -0.0000
vn -0.9275 0.3739 -0.0005
vn 0.8813 0.4726 -0.0008
vn -0.9986 0.0536 0.0001
vn -0.9969 0.0783 0.0020
vn -0.9078 0.4193 -0.0005
vn 0.9985 -0.0547 0.0000
vn -0.0301 0.9995 0.0049
vn 0.0349 0.9994 0.0073
vn 0.0580 0.9983 -0.0025
vn -0.0259 0.9995 -0.0167
vn -0.0599 0.0255 -0.9979
vn -0.0146 0.0035 -0.9999
vn 0.0240 -0.0048 -0.9997
vn 0.0181 0.0021 -0.9998
vn -0.0011 -0.0002 -1.0000
vn -0.6710 -0.6561 0.3454
vn -0.0859 -0.0128 -0.9962
vn -0.0284 -0.0241 0.9993
vn 0.4032 -0.9151 -0.0003
vn -0.9711 -0.2383 0.0126
vn -0.0266 -0.0108 0.9996
vn 0.1582 0.9874 0.0000
vn -0.0000 0.0001 1.0000
vn -0.0015 0.0000 -1.0000
vn 0.0812 -0.9967 0.0000
vn 0.1162 0.9932 0.0000
vn 0.1051 0.9945 -0.0000
vn 0.4725 0.8813 -0.0018
vn 0.5902 0.8072 -0.0052
vn -0.7501 -0.6609 0.0243
vn -0.8234 -0.5672 0.0172
vn -0.7046 -0.7096 0.0084
vn -0.3846 -0.9231 0.0000
vn -0.3447 -0.9387 0.0000
vn -0.0399 -0.7746 0.6312
vn -0.1012 -0.9949 -0.0000
vn -0.0421 -0.9991 -0.0002
vn 0.0611 -0.8074 0.5868
vn 0.0093 -1.0000 0.0012
vn 0.1113 -0.9938 -0.0007
vn 0.1800 -0.8366 0.5175
vn 0.1177 -0.6018 0.7899
vn 0.0320 -0.5337 0.8451
vn -0.0292 -0.5061 0.8620
vn 0.0001 0.0000 1.0000
vn -0.3236 0.0000 0.9462
vn -0.5623 0.0057 0.8269
vn -0.7263 0.0084 0.6874
vn -0.6348 -0.0802 0.7685
vn -0.0483 0.0115 -0.9988
vn -0.6714 -0.0422 -0.7398
vn -0.5646 0.0444 -0.8242
vn -0.7053 0.0290 -0.7083
vn -0.1740 0.0000 -0.9848
vn -0.0454 -0.5761 -0.8162
vn 0.0004 0.0004 -1.0000
vn 0.1282 -0.6740 -0.7275
vn -0.0001 -0.0000 -1.0000
vn 0.0429 -0.5989 -0.7997
vn 0.0001 -0.0000 -1.0000
vn 0.6389 -0.6806 0.3586
vn 0.5371 -0.7649 -0.3555
vn 0.9999 -0.0103 -0.0007
vn 0.9999 0.0109 -0.0008
vn 0.7115 -0.0003 0.7027
vn 0.7102 -0.4685 0.5255
vn 0.7027 -0.0007 -0.7115
vn 0.6874 -0.5353 -0.4908
vn 0.0035 0.0020 1.0000
vn -0.0196 0.9998 -0.0047
vn 0.0913 -0.8470 -0.5236
vn 0.0372 -0.6319 -0.7742
vn 0.0230 0.9997 0.0002
vn -0.0778 -0.7972 -0.5988
vn 0.0157 -0.5724 -0.8198
vn 0.0030 -0.7933 -0.6088
vn -0.0264 -0.5656 -0.8243
vn -0.0342 -0.7969 -0.6032
vn -0.0005 -0.0001 1.0000
vn 0.0772 0.9969 0.0132
vn -0.3641 -0.7475 -0.5555
vn -0.3150 -0.5518 -0.7722
vn -0.6425 -0.6275 -0.4398
vn -0.6888 -0.4316 -0.5824
vn -0.7683 -0.5483 -0.3304
vn -0.7381 -0.4426 -0.5093
vn -0.8163 -0.3586 -0.4528
vn -0.7770 -0.3556 0.5194
vn -0.7095 -0.5938 0.3796
vn -0.7443 -0.5494 0.3797
vn -0.7203 -0.5522 0.4197
vn -0.4410 -0.7018 0.5594
vn -0.4172 -0.4623 0.7825
vn -0.0508 -0.7960 -0.6032
vn -0.0168 -0.0032 -0.9999
vn -0.0771 -0.7747 0.6277
vn 0.0053 -0.7848 0.6198
vn -0.0333 -0.7759 0.6299
vn -0.0194 -0.4840 0.8748
vn 0.0637 -0.8257 -0.5605
vn 0.0927 -0.8292 0.5513
vn 0.1794 -0.8533 -0.4896
vn 0.0039 0.0030 -1.0000
vn 1.0000 -0.0002 -0.0004
vn 0.0827 0.9965 -0.0097
vn 0.0720 0.9974 0.0000
vn 0.1021 0.9948 0.0000
vn -0.1112 0.9938 -0.0000
vn 0.0166 -0.0017 0.9999
vn 0.0260 0.9996 0.0087
vn -0.7358 -0.6772 0.0004
vn 0.0084 1.0000 0.0002
vn 0.6193 -0.7851 -0.0002
vn -0.9985 0.0539 0.0004
vn 0.0126 0.0030 0.9999
vn 0.0228 -0.0005 -0.9997
vn -0.0346 0.9991 0.0236
vn 0.0178 -0.0089 -0.9998
vn 0.7556 -0.6551 -0.0002
vn 0.0694 0.9976 0.0027
vn 0.7524 -0.6587 -0.0000
vn -0.8200 -0.5724 0.0004
vn 0.0209 0.9998 0.0015
vn 0.0218 0.9998 0.0002
vn 0.0096 1.0000 -0.0006
vn 0.0508 0.9987 -0.0098
vn 0.0439 0.9989 0.0134
vn 0.0564 0.9984 0.0004
vn 0.0278 0.9996 0.0096
vn 0.9986 -0.0523 -0.0000
vn 0.7461 0.6658 -0.0000
vn -0.6673 0.7448 0.0003
vn 0.0394 0.7039 -0.7092
vn 0.0394 0.7038 0.7093
vn 0.0001 -0.0003 -1.0000
vn 0.9463 0.3231 0.0002
vn -1.0000 -0.0097 0.0001
vn -0.7394 -0.6733 -0.0001
vn -0.0004 0.0004 1.0000
vn 0.9989 -0.0457 0.0100
vn 0.9995 0.0309 0.0032
vn 0.9514 0.3078 0.0016
vn -0.5909 -0.8067 0.0001
vn -0.9998 0.0174 -0.0000
vn -0.9488 0.3158 0.0001
vn 0.9342 0.3567 0.0002
vn 0.0127 0.9999 -0.0010
vn -0.8114 0.5846 0.0026
vn -0.0351 0.9990 -0.0259
vn 0.0260 0.9996 0.0078
vn 0.0558 0.9984 0.0111
vn 0.0475 0.9988 -0.0104
vn 0.0485 0.9988 -0.0101
vn -0.0499 -0.9988 0.0002
vn 0.0567 0.9983 0.0146
vn 0.0536 0.9983 -0.0223
vn -0.0200 0.9998 0.0034
vn -0.0055 -0.0092 -0.9999
vn 0.0185 0.9998 -0.0020
vn -0.0019 0.0014 -1.0000
vn -0.0017 0.0001 -1.0000
vn -0.0007 0.0042 -1.0000
vn 0.0004 -0.0000 -1.0000
vn -0.0055 -0.0116 -0.9999
vn 0.0007 0.0023 -1.0000
vn 0.0004 0.0002 -1.0000
vn 0.9996 -0.0275 0.0000
vn 0.0141 -0.0047 0.9999
vn 0.0132 -0.0010 0.9999
vn 0.2144 -0.9767 0.0017
vn 0.4095 -0.9123 -0.0000
usemtl None
s off
f 164/1/1 135/2/1 181/3/1
f 163/4/2 173/5/2 129/6/2
f 38/7/3 149/8/3 72/9/3
f 6/10/4 33/11/4 7/12/4
f 57/13/5 106/14/5 107/15/5
f 60/16/6 107/15/6 108/17/6
f 60/16/6 108/17/6 109/18/6
f 102/19/7 82/20/7 101/21/7
f 93/22/8 47/23/8 94/24/8
f 90/25/9 91/26/9 89/27/9
f 87/28/10 6/29/10 7/30/10
f 85/31/11 86/32/11 87/28/11
f 8/33/12 85/31/12 7/30/12
f 84/34/13 82/20/13 85/31/13
f 83/35/14 82/20/14 84/34/14
f 14/36/15 75/37/15 13/38/15
f 26/39/16 70/40/16 25/41/16
f 66/42/17 65/43/17 67/44/17
f 60/16/18 62/45/18 61/46/18
f 60/16/19 61/46/19 59/47/19
f 59/47/20 31/48/20 32/49/20
f 57/13/21 59/47/21 58/50/21
f 88/51/22 103/52/22 104/53/22
f 55/54/23 54/55/23 56/56/23
f 114/57/24 51/58/24 113/59/24
f 1/60/25 52/61/25 53/62/25
f 48/63/26 111/64/26 112/65/26
f 180/66/27 127/67/27 51/68/27
f 39/69/1 175/70/1 172/71/1
f 20/72/28 170/73/28 124/74/28
f 22/75/6 167/76/6 150/77/6
f 129/6/29 173/5/29 169/78/29
f 123/79/30 122/80/30 133/81/30
f 134/82/31 122/80/31 123/79/31
f 121/83/32 137/84/32 143/85/32
f 119/86/33 145/87/33 144/88/33
f 160/89/34 159/90/34 161/91/34
f 160/89/35 161/91/35 158/92/35
f 162/93/36 155/94/36 156/95/36
f 163/4/37 169/78/37 125/96/37
f 163/4/38 129/6/38 169/78/38
f 173/5/39 170/97/39 171/98/39
f 133/81/40 128/99/40 130/100/40
f 37/101/41 105/102/41 36/103/41
f 183/104/42 102/105/42 21/106/42
f 22/75/43 103/107/43 183/104/43
f 24/108/44 104/109/44 23/110/44
f 53/62/45 73/111/45 14/112/45
f 39/69/1 172/71/1 40/113/1
f 36/103/46 157/114/46 162/93/46
f 36/103/47 51/58/47 157/114/47
f 154/115/48 157/114/48 116/116/48
f 176/117/1 181/3/1 174/118/1
f 166/119/1 164/1/1 181/3/1
f 181/3/1 176/117/1 175/70/1
f 39/69/1 181/3/1 175/70/1
f 40/113/49 172/71/49 173/5/49
f 168/120/6 183/104/6 165/121/6
f 183/104/6 168/120/6 167/122/6
f 22/75/6 183/104/6 167/122/6
f 68/123/50 66/42/50 67/44/50
f 53/62/51 52/61/51 73/111/51
f 25/124/52 71/125/52 1/126/52
f 47/23/53 49/127/53 46/128/53
f 3/129/54 52/61/54 1/60/54 2/130/54
f 45/131/55 2/132/55 1/126/55 71/125/55
f 2/133/56 45/134/56 15/135/56 3/136/56
f 156/95/57 24/108/57 23/110/57 161/91/57
f 144/88/58 146/137/58 151/138/58 118/139/58
f 164/1/1 132/140/1 135/2/1
f 33/11/59 6/10/59 5/141/59 34/142/59
f 42/143/60 110/144/60 100/145/60 18/146/60
f 42/143/61 18/146/61 17/147/61 43/148/61
f 44/149/62 43/148/62 17/147/62 16/150/62
f 44/149/63 16/150/63 15/135/63 45/134/63
f 25/151/64 1/152/64 53/153/64 14/154/64
f 25/151/65 14/154/65 13/155/65 26/156/65
f 27/157/66 26/156/66 13/155/66 12/158/66
f 27/157/67 12/158/67 11/159/67 28/160/67
f 28/160/68 11/159/68 10/161/68 29/162/68
f 29/163/69 30/164/69 62/45/69 64/165/69
f 30/166/70 9/167/70 8/168/70 31/169/70
f 31/169/71 8/168/71 7/12/71 32/170/71
f 58/50/72 33/171/72 34/172/72 56/56/72
f 7/12/73 33/11/73 32/170/73
f 34/142/74 5/141/74 4/173/74 35/174/74
f 49/127/75 97/175/75 55/54/75 35/176/75
f 97/175/76 96/177/76 54/55/76 55/54/76
f 57/13/77 58/50/77 56/56/77 54/55/77
f 64/165/78 62/45/78 60/16/78 63/178/78
f 135/2/1 130/100/1 174/118/1 181/3/1
f 60/16/79 57/13/79 107/15/79
f 110/179/80 42/180/80 65/43/80 63/178/80
f 42/180/81 43/181/81 67/44/81 65/43/81
f 43/181/82 44/182/82 69/183/82 67/44/82
f 44/182/83 45/131/83 71/125/83 69/183/83
f 52/61/84 3/129/84 15/184/84 73/111/84
f 73/111/85 15/184/85 16/185/85 74/186/85
f 74/186/86 16/185/86 17/187/86 76/188/86
f 76/188/87 17/187/87 18/189/87 78/190/87
f 78/190/88 18/189/88 100/191/88 80/192/88
f 81/193/89 80/192/89 82/20/89 83/35/89
f 82/20/90 102/19/90 103/52/90 86/32/90
f 94/24/91 91/26/91 90/25/91 95/194/91
f 88/51/92 86/32/92 103/52/92
f 89/27/93 87/28/93 88/51/93
f 90/25/94 88/51/94 104/53/94
f 98/195/95 97/175/95 49/127/95 50/196/95
f 94/24/96 47/23/96 46/197/96
f 98/195/97 50/196/97 47/23/97 93/22/97
f 99/198/98 98/195/98 93/22/98 92/199/98
f 113/59/99 96/177/99 99/198/99 114/57/99
f 99/198/100 96/177/100 97/175/100 98/195/100
f 92/199/101 95/194/101 112/65/101 111/64/101
f 94/24/102 95/194/102 92/199/102 93/22/102
f 105/200/103 54/55/103 96/177/103 113/59/103
f 115/201/104 116/116/104 127/67/104 180/202/104
f 4/203/105 5/204/105 89/27/105 91/26/105
f 106/14/5 57/13/5 54/55/5 105/200/5
f 88/51/106 90/25/106 89/27/106
f 117/205/107 119/86/107 144/88/107 118/139/107
f 84/34/108 8/33/108 9/206/108 83/35/108
f 86/32/109 88/51/109 87/28/109
f 7/30/110 85/31/110 87/28/110
f 85/31/111 82/20/111 86/32/111
f 8/33/112 84/34/112 85/31/112
f 109/18/113 110/179/113 63/178/113 60/16/113
f 101/207/114 100/145/114 19/208/114 20/72/114
f 81/193/115 10/209/115 11/210/115 79/211/115
f 80/192/116 81/193/116 79/211/116 78/190/116
f 11/210/117 12/212/117 77/213/117 79/211/117
f 79/211/118 77/213/118 76/188/118 78/190/118
f 12/212/119 13/38/119 75/37/119 77/213/119
f 76/188/120 77/213/120 75/37/120 74/186/120
f 74/186/121 75/37/121 14/36/121 73/111/121
f 25/124/122 70/40/122 69/183/122 71/125/122
f 26/39/123 27/214/123 68/123/123 70/40/123
f 69/183/124 70/40/124 68/123/124 67/44/124
f 68/123/125 27/214/125 28/215/125 66/42/125
f 66/42/126 28/215/126 29/163/126 64/165/126
f 66/42/127 64/165/127 63/178/127 65/43/127
f 10/209/128 81/193/128 83/35/128 9/206/128
f 80/192/129 100/191/129 101/21/129 82/20/129
f 30/164/130 31/48/130 61/46/130 62/45/130
f 32/49/131 33/171/131 58/50/131 59/47/131
f 59/47/132 61/46/132 31/48/132
f 57/13/133 60/16/133 59/47/133
f 87/28/134 89/27/134 5/204/134 6/29/134
f 56/56/135 34/172/135 35/176/135 55/54/135
f 46/197/136 4/203/136 91/26/136 94/24/136
f 95/194/137 90/25/137 104/53/137 112/65/137
f 111/64/138 114/57/138 99/198/138 92/199/138
f 109/216/139 40/113/139 41/217/139 110/144/139
f 182/218/140 126/219/140 163/4/140 125/96/140
f 100/145/141 110/144/141 41/217/141 19/208/141
f 111/64/142 48/220/142 51/68/142 114/57/142
f 155/94/143 180/202/143 48/221/143 24/108/143 156/95/143
f 105/102/144 37/101/144 38/7/144 106/222/144
f 152/223/145 160/89/145 158/92/145
f 179/224/146 161/91/146 159/90/146
f 147/225/147 146/137/147 145/87/147 148/226/147
f 138/227/148 123/79/148 121/83/148 143/85/148
f 125/96/149 169/78/149 171/98/149 182/218/149
f 121/83/6 120/228/6 137/84/6
f 127/229/150 116/116/150 157/114/150 51/58/150
f 104/109/151 24/108/151 48/221/151 112/65/151
f 122/80/6 183/104/6 128/99/6 133/81/6
f 122/80/6 131/230/6 165/121/6 183/104/6
f 37/101/152 179/224/152 159/90/152
f 176/117/153 174/118/153 128/99/153 177/231/153
f 175/70/154 178/232/154 124/74/154 172/71/154
f 157/114/155 154/115/155 153/233/155 155/94/155
f 169/78/156 173/5/156 171/98/156
f 149/234/157 150/77/157 72/9/157
f 120/228/158 132/140/158 131/230/158 134/82/158
f 123/79/159 133/81/159 130/100/159 121/83/159
f 135/2/160 132/140/160 120/228/160 121/83/160
f 134/82/161 131/230/161 122/80/161
f 141/235/162 136/236/162 142/237/162 139/238/162
f 121/83/163 130/100/163 135/2/163
f 137/84/164 120/228/164 134/82/164 140/239/164
f 140/239/165 136/236/165 141/235/165 137/84/165
f 142/237/166 138/227/166 143/85/166 139/238/166
f 138/227/167 142/237/167 136/236/167 140/239/167
f 143/85/168 137/84/168 141/235/168 139/238/168
f 140/239/169 134/82/169 123/79/169 138/227/169
f 148/226/170 150/77/170 149/234/170 147/225/170
f 144/88/33 145/87/33 146/137/33
f 151/138/171 152/223/171 117/205/171 118/139/171
f 152/223/172 151/138/172 160/89/172
f 178/232/173 21/106/173 20/72/173 124/74/173
f 116/116/174 115/201/174 154/115/174
f 115/201/175 153/233/175 154/115/175
f 162/93/176 157/114/176 155/94/176
f 168/120/177 165/121/177 164/1/177 166/119/177
f 165/121/178 131/230/178 132/140/178 164/1/178
f 72/9/179 167/122/179 168/120/179 166/119/179
f 177/231/180 178/232/180 175/70/180 176/117/180
f 150/77/181 167/122/181 72/9/181
f 173/5/182 172/71/182 170/97/182
f 130/100/40 128/99/40 174/118/40
f 51/58/183 36/103/183 105/102/183 113/59/183
f 103/107/184 22/75/184 23/110/184 104/109/184
f 106/222/185 38/7/185 181/3/185 107/240/185
f 107/240/186 181/3/186 39/69/186 108/241/186
f 108/241/187 39/69/187 40/113/187 109/216/187
f 10/161/188 9/167/188 30/166/188 29/162/188
f 101/207/189 20/72/189 21/106/189 102/105/189
f 22/75/6 150/77/6 161/91/6 23/110/6
f 183/104/190 103/107/190 102/105/190
f 179/224/191 162/93/191 156/95/191 161/91/191
f 162/242/192 179/224/192 37/101/192 36/103/192
f 170/97/193 172/71/193 124/74/193
f 160/89/194 147/225/194 149/234/194 159/90/194
f 48/220/27 180/66/27 51/68/27
f 151/138/195 146/137/195 147/225/195 160/89/195
f 38/7/196 37/101/196 159/90/196 149/234/196
f 126/219/197 41/217/197 40/113/197 173/5/197
f 181/3/198 72/9/198 166/119/198
f 38/7/199 72/9/199 181/3/199
f 173/5/200 163/4/200 126/219/200
f 182/218/201 19/208/201 41/217/201 126/219/201
f 115/201/202 180/202/202 155/94/202 153/233/202
f 152/223/6 145/87/6 119/86/6 117/205/6
f 148/226/6 145/87/6 152/223/6 158/92/6
f 150/77/6 148/226/6 158/92/6 161/91/6
f 177/231/6 128/99/6 183/104/6
f 183/104/6 178/232/6 177/231/6
f 21/106/6 178/232/6 183/104/6
f 182/218/203 171/98/203 170/97/203 20/72/203 19/208/203
f 35/174/204 4/173/204 46/128/204 49/127/204
f 47/23/205 50/196/205 49/127/205
