# Blender v2.80 (sub 75) OBJ File: 'wip_boat_optimized.blend'
# www.blender.org
mtllib rope.mtl
o Cylinder_Cylinder.001
v -9.182132 2.333276 -0.224353
v -1.540150 14.393652 0.189800
v -9.180406 2.332487 -0.224150
v -1.538424 14.392862 0.190003
v -9.178763 2.331695 -0.223582
v -1.536782 14.392071 0.190571
v -9.177269 2.330933 -0.222671
v -1.535287 14.391309 0.191482
v -9.175980 2.330229 -0.221452
v -1.533997 14.390604 0.192700
v -9.174944 2.329610 -0.219973
v -1.532961 14.389986 0.194180
v -9.174202 2.329100 -0.218289
v -1.532220 14.389476 0.195863
v -9.173782 2.328719 -0.216466
v -1.531801 14.389094 0.197687
v -9.173703 2.328481 -0.214573
v -1.531721 14.388857 0.199579
v -9.173965 2.328395 -0.212684
v -1.531983 14.388771 0.201468
v -9.174558 2.328465 -0.210871
v -1.532576 14.388842 0.203281
v -9.175461 2.328688 -0.209203
v -1.533478 14.389064 0.204949
v -9.176637 2.329056 -0.207746
v -1.534655 14.389431 0.206407
v -9.178042 2.329554 -0.206553
v -1.536061 14.389930 0.207599
v -9.179623 2.330163 -0.205673
v -1.537641 14.390539 0.208479
v -9.181318 2.330860 -0.205138
v -1.539336 14.391235 0.209015
v -9.183062 2.331617 -0.204969
v -1.541080 14.391994 0.209184
v -9.184789 2.332407 -0.205172
v -1.542806 14.392783 0.208980
v -9.186430 2.333199 -0.205740
v -1.544448 14.393574 0.208412
v -9.187925 2.333961 -0.206651
v -1.545943 14.394337 0.207502
v -9.189215 2.334665 -0.207869
v -1.547233 14.395041 0.206283
v -9.190250 2.335284 -0.209349
v -1.548269 14.395659 0.204803
v -9.190992 2.335794 -0.211033
v -1.549010 14.396170 0.203120
v -9.191410 2.336175 -0.212856
v -1.549429 14.396551 0.201297
v -9.191491 2.336413 -0.214748
v -1.549509 14.396790 0.199404
v -9.191229 2.336499 -0.216637
v -1.549247 14.396874 0.197515
v -9.190636 2.336429 -0.218451
v -1.548654 14.396805 0.195702
v -9.189734 2.336205 -0.220118
v -1.547752 14.396582 0.194034
v -9.188557 2.335838 -0.221576
v -1.546575 14.396214 0.192576
v -9.187151 2.335340 -0.222768
v -1.545170 14.395716 0.191384
v -9.185571 2.334731 -0.223649
v -1.543589 14.395107 0.190504
v -9.183876 2.334034 -0.224184
v -1.541894 14.394409 0.189969
vt 1.000000 0.500000
vt 0.968750 1.000000
vt 0.968750 0.500000
vt 0.937500 0.500000
vt 0.937500 1.000000
vt 0.906250 0.500000
vt 0.906250 1.000000
vt 0.875000 0.500000
vt 0.843750 1.000000
vt 0.843750 0.500000
vt 0.812500 0.500000
vt 0.781250 1.000000
vt 0.781250 0.500000
vt 0.750000 1.000000
vt 0.750000 0.500000
vt 0.718750 1.000000
vt 0.718750 0.500000
vt 0.687500 0.500000
vt 0.656250 1.000000
vt 0.656250 0.500000
vt 0.625000 1.000000
vt 0.625000 0.500000
vt 0.593750 0.500000
vt 0.562500 1.000000
vt 0.562500 0.500000
vt 0.531250 1.000000
vt 0.531250 0.500000
vt 0.500000 0.500000
vt 0.468750 1.000000
vt 0.468750 0.500000
vt 0.437500 1.000000
vt 0.437500 0.500000
vt 0.406250 1.000000
vt 0.406250 0.500000
vt 0.375000 1.000000
vt 0.375000 0.500000
vt 0.343750 1.000000
vt 0.343750 0.500000
vt 0.312500 1.000000
vt 0.312500 0.500000
vt 0.281250 1.000000
vt 0.281250 0.500000
vt 0.250000 0.500000
vt 0.250000 1.000000
vt 0.218750 0.500000
vt 0.187500 1.000000
vt 0.187500 0.500000
vt 0.156250 0.500000
vt 0.125000 1.000000
vt 0.125000 0.500000
vt 0.093750 0.500000
vt 0.093750 1.000000
vt 0.062500 0.500000
vt 0.028269 0.341844
vt 0.158156 0.028269
vt 0.471731 0.158156
vt 0.062500 1.000000
vt 0.031250 0.500000
vt 0.000000 1.000000
vt 0.000000 0.500000
vt 0.796822 0.014612
vt 0.514611 0.203179
vt 0.703179 0.485389
vt 1.000000 1.000000
vt 0.875000 1.000000
vt 0.812500 1.000000
vt 0.687500 1.000000
vt 0.593750 1.000000
vt 0.500000 1.000000
vt 0.218750 1.000000
vt 0.156250 1.000000
vt 0.341844 0.471731
vt 0.296822 0.485388
vt 0.250000 0.490000
vt 0.203179 0.485389
vt 0.158156 0.471731
vt 0.116663 0.449553
vt 0.080295 0.419706
vt 0.050447 0.383337
vt 0.014612 0.296822
vt 0.028269 0.158156
vt 0.010000 0.250000
vt 0.014611 0.203179
vt 0.050447 0.116663
vt 0.080294 0.080294
vt 0.116663 0.050447
vt 0.203178 0.014612
vt 0.341844 0.028269
vt 0.250000 0.010000
vt 0.296822 0.014612
vt 0.383337 0.050447
vt 0.419706 0.080294
vt 0.449553 0.116663
vt 0.485388 0.203178
vt 0.490000 0.250000
vt 0.485388 0.296822
vt 0.471731 0.341844
vt 0.449553 0.383337
vt 0.419706 0.419706
vt 0.383337 0.449553
vt 0.031250 1.000000
vt 0.750000 0.490000
vt 0.883337 0.449553
vt 0.796822 0.485388
vt 0.841844 0.471731
vt 0.919706 0.419706
vt 0.949553 0.383337
vt 0.971731 0.341844
vt 0.985388 0.296822
vt 0.990000 0.250000
vt 0.949553 0.116663
vt 0.985388 0.203178
vt 0.971731 0.158156
vt 0.919706 0.080294
vt 0.883337 0.050447
vt 0.841844 0.028269
vt 0.750000 0.010000
vt 0.616663 0.050447
vt 0.703178 0.014612
vt 0.658156 0.028269
vt 0.580294 0.080294
vt 0.550447 0.116663
vt 0.528269 0.158156
vt 0.510000 0.250000
vt 0.514612 0.296822
vt 0.528269 0.341844
vt 0.550447 0.383337
vt 0.580295 0.419706
vt 0.616663 0.449553
vt 0.658156 0.471731
vn 0.1029 -0.0311 -0.9942
vn 0.2650 -0.1352 -0.9547
vn 0.4164 -0.2336 -0.8787
vn 0.5511 -0.3227 -0.7695
vn 0.6644 -0.3993 -0.6318
vn 0.7522 -0.4605 -0.4713
vn 0.8124 -0.5047 -0.2919
vn 0.8419 -0.5300 -0.1014
vn 0.8397 -0.5352 0.0924
vn 0.8056 -0.5202 0.2834
vn 0.7401 -0.4849 0.4660
vn 0.6461 -0.4310 0.6299
vn 0.5261 -0.3598 0.7706
vn 0.3851 -0.2743 0.8812
vn 0.2288 -0.1779 0.9571
vn 0.0641 -0.0748 0.9951
vn -0.1028 0.0310 0.9942
vn -0.2652 0.1352 0.9547
vn -0.4161 0.2335 0.8788
vn -0.5511 0.3228 0.7695
vn -0.6642 0.3991 0.6321
vn -0.7522 0.4605 0.4713
vn -0.8125 0.5048 0.2917
vn -0.8419 0.5299 0.1024
vn -0.8396 0.5352 -0.0930
vn -0.8056 0.5202 -0.2834
vn -0.7401 0.4850 -0.4658
vn -0.6462 0.4311 -0.6297
vn -0.5260 0.3598 -0.7706
vn -0.3851 0.2743 -0.8812
vn 0.4045 0.9093 0.0974
vn -0.2289 0.1779 -0.9570
vn -0.0640 0.0747 -0.9951
vn -0.4046 -0.9093 -0.0972
vn 0.1029 -0.0310 -0.9942
vn 0.2651 -0.1352 -0.9547
vn 0.4164 -0.2337 -0.8786
vn 0.5506 -0.3225 -0.7699
vn 0.7524 -0.4606 -0.4709
vn 0.8123 -0.5047 -0.2925
vn 0.8418 -0.5299 -0.1026
vn 0.8397 -0.5352 0.0917
vn 0.8056 -0.5202 0.2837
vn 0.7404 -0.4851 0.4653
vn 0.5260 -0.3598 0.7706
vn 0.3850 -0.2742 0.8812
vn 0.2291 -0.1780 0.9570
vn 0.0640 -0.0748 0.9951
vn -0.1029 0.0311 0.9942
vn -0.2652 0.1353 0.9547
vn -0.4162 0.2336 0.8788
vn -0.5509 0.3227 0.7696
vn -0.6644 0.3993 0.6318
vn -0.7526 0.4607 0.4705
vn -0.8123 0.5047 0.2924
vn -0.8418 0.5299 0.1028
vn -0.8397 0.5352 -0.0918
vn -0.8055 0.5201 -0.2839
vn -0.7405 0.4852 -0.4651
vn -0.6456 0.4307 -0.6306
vn -0.3854 0.2745 -0.8810
vn 0.4046 0.9096 0.0943
vn 0.4043 0.9092 0.0990
vn 0.4048 0.9096 0.0938
vn 0.4036 0.9095 0.0995
vn 0.4058 0.9091 0.0943
vn 0.4040 0.9096 0.0971
vn 0.4059 0.9087 0.0972
vn 0.4039 0.9095 0.0982
vn 0.4037 0.9092 0.1021
vn 0.4056 0.9092 0.0942
vn 0.4045 0.9094 0.0974
vn 0.4046 0.9095 0.0956
vn 0.4051 0.9094 0.0943
vn 0.4050 0.9089 0.0992
vn 0.4061 0.9086 0.0972
vn 0.4051 0.9094 0.0942
vn 0.4062 0.9085 0.0982
vn 0.4060 0.9086 0.0981
vn 0.4016 0.9101 0.1021
vn 0.4055 0.9087 0.0990
vn 0.4045 0.9097 0.0939
vn 0.4047 0.9093 0.0966
vn 0.4046 0.9093 0.0971
vn 0.4046 0.9093 0.0974
vn 0.4044 0.9094 0.0969
vn 0.4045 0.9094 0.0971
vn 0.4046 0.9093 0.0975
vn -0.2289 0.1779 -0.9571
vn -0.0641 0.0748 -0.9951
vn -0.4046 -0.9093 -0.0970
vn -0.4039 -0.9096 -0.0976
vn -0.4053 -0.9091 -0.0963
vn -0.4049 -0.9091 -0.0976
vn -0.4070 -0.9083 -0.0965
vn -0.4032 -0.9100 -0.0971
vn -0.4062 -0.9086 -0.0976
vn -0.4010 -0.9110 -0.0960
vn -0.4007 -0.9112 -0.0961
vn -0.4053 -0.9091 -0.0959
vn -0.4042 -0.9095 -0.0971
vn -0.4045 -0.9094 -0.0963
vn -0.4049 -0.9093 -0.0963
vn -0.4062 -0.9087 -0.0967
vn -0.4042 -0.9094 -0.0977
vn -0.4071 -0.9082 -0.0978
vn -0.4029 -0.9101 -0.0971
vn -0.4035 -0.9098 -0.0974
vn -0.4058 -0.9088 -0.0967
vn -0.4048 -0.9091 -0.0979
vn -0.4053 -0.9090 -0.0968
vn -0.4050 -0.9091 -0.0974
vn -0.4047 -0.9093 -0.0973
vn -0.4045 -0.9094 -0.0972
usemtl Rope
s off
f 1/1/1 4/2/1 3/3/1
f 4/2/2 5/4/2 3/3/2
f 6/5/3 7/6/3 5/4/3
f 8/7/4 9/8/4 7/6/4
f 9/8/5 12/9/5 11/10/5
f 12/9/6 13/11/6 11/10/6
f 13/11/7 16/12/7 15/13/7
f 15/13/8 18/14/8 17/15/8
f 17/15/9 20/16/9 19/17/9
f 20/16/10 21/18/10 19/17/10
f 21/18/11 24/19/11 23/20/11
f 23/20/12 26/21/12 25/22/12
f 26/21/13 27/23/13 25/22/13
f 27/23/14 30/24/14 29/25/14
f 29/25/15 32/26/15 31/27/15
f 32/26/16 33/28/16 31/27/16
f 33/28/17 36/29/17 35/30/17
f 35/30/18 38/31/18 37/32/18
f 37/32/19 40/33/19 39/34/19
f 39/34/20 42/35/20 41/36/20
f 41/36/21 44/37/21 43/38/21
f 43/38/22 46/39/22 45/40/22
f 45/40/23 48/41/23 47/42/23
f 48/41/24 49/43/24 47/42/24
f 50/44/25 51/45/25 49/43/25
f 51/45/26 54/46/26 53/47/26
f 54/46/27 55/48/27 53/47/27
f 55/48/28 58/49/28 57/50/28
f 58/49/29 59/51/29 57/50/29
f 60/52/30 61/53/30 59/51/30
f 54/54/31 38/55/31 22/56/31
f 62/57/32 63/58/32 61/53/32
f 63/58/33 2/59/33 1/60/33
f 31/61/34 47/62/34 63/63/34
f 1/1/35 2/64/35 4/2/35
f 4/2/36 6/5/36 5/4/36
f 6/5/37 8/7/37 7/6/37
f 8/7/38 10/65/38 9/8/38
f 9/8/5 10/65/5 12/9/5
f 12/9/39 14/66/39 13/11/39
f 13/11/40 14/66/40 16/12/40
f 15/13/41 16/12/41 18/14/41
f 17/15/42 18/14/42 20/16/42
f 20/16/43 22/67/43 21/18/43
f 21/18/44 22/67/44 24/19/44
f 23/20/12 24/19/12 26/21/12
f 26/21/45 28/68/45 27/23/45
f 27/23/46 28/68/46 30/24/46
f 29/25/47 30/24/47 32/26/47
f 32/26/48 34/69/48 33/28/48
f 33/28/49 34/69/49 36/29/49
f 35/30/50 36/29/50 38/31/50
f 37/32/51 38/31/51 40/33/51
f 39/34/52 40/33/52 42/35/52
f 41/36/53 42/35/53 44/37/53
f 43/38/54 44/37/54 46/39/54
f 45/40/55 46/39/55 48/41/55
f 48/41/56 50/44/56 49/43/56
f 50/44/57 52/70/57 51/45/57
f 51/45/58 52/70/58 54/46/58
f 54/46/59 56/71/59 55/48/59
f 55/48/60 56/71/60 58/49/60
f 58/49/29 60/52/29 59/51/29
f 60/52/61 62/57/61 61/53/61
f 6/72/62 4/73/62 2/74/62
f 2/74/63 64/75/63 6/72/63
f 64/75/64 62/76/64 6/72/64
f 62/76/65 60/77/65 58/78/65
f 58/78/66 56/79/66 54/54/66
f 54/54/67 52/80/67 46/81/67
f 52/80/68 50/82/68 46/81/68
f 50/82/69 48/83/69 46/81/69
f 46/81/70 44/84/70 42/85/70
f 42/85/71 40/86/71 38/55/71
f 38/55/72 36/87/72 30/88/72
f 36/87/73 34/89/73 30/88/73
f 34/89/74 32/90/74 30/88/74
f 30/88/75 28/91/75 22/56/75
f 28/91/76 26/92/76 22/56/76
f 26/92/77 24/93/77 22/56/77
f 22/56/78 20/94/78 18/95/78
f 18/95/79 16/96/79 14/97/79
f 14/97/80 12/98/80 10/99/80
f 10/99/81 8/100/81 14/97/81
f 8/100/82 6/72/82 14/97/82
f 62/76/83 58/78/83 6/72/83
f 58/78/31 54/54/31 6/72/31
f 46/81/84 42/85/84 54/54/84
f 42/85/85 38/55/85 54/54/85
f 22/56/86 18/95/86 14/97/86
f 38/55/87 30/88/87 22/56/87
f 22/56/88 14/97/88 6/72/88
f 6/72/84 54/54/84 22/56/84
f 62/57/89 64/101/89 63/58/89
f 63/58/90 64/101/90 2/59/90
f 63/63/91 1/102/91 7/103/91
f 1/102/92 3/104/92 7/103/92
f 3/104/93 5/105/93 7/103/93
f 7/103/94 9/106/94 11/107/94
f 11/107/95 13/108/95 15/109/95
f 15/109/96 17/110/96 23/111/96
f 17/110/97 19/112/97 23/111/97
f 19/112/98 21/113/98 23/111/98
f 23/111/99 25/114/99 27/115/99
f 27/115/100 29/116/100 31/61/100
f 31/61/91 33/117/91 39/118/91
f 33/117/101 35/119/101 39/118/101
f 35/119/102 37/120/102 39/118/102
f 39/118/103 41/121/103 43/122/103
f 43/122/104 45/123/104 39/118/104
f 45/123/105 47/62/105 39/118/105
f 47/62/106 49/124/106 51/125/106
f 51/125/107 53/126/107 55/127/107
f 55/127/108 57/128/108 59/129/108
f 59/129/109 61/130/109 55/127/109
f 61/130/110 63/63/110 55/127/110
f 7/103/111 11/107/111 15/109/111
f 23/111/112 27/115/112 15/109/112
f 27/115/113 31/61/113 15/109/113
f 47/62/113 51/125/113 63/63/113
f 51/125/114 55/127/114 63/63/114
f 63/63/34 7/103/34 31/61/34
f 7/103/114 15/109/114 31/61/114
f 31/61/34 39/118/34 47/62/34
